# xmcd CD database file
#
# Track frame offsets:
#	150
#	25402
#	46612
#	67227
#	86385
#	108775
#
# Disc length: 1731 seconds
#
# Revision: 2
# Processed by: cddbd v1.4b41PL1 Copyright (c) Steve Scherf et al.
# Submitted via: Feurio! 1.50.2ß - http://www.feurio.com
#
DISCID=4206c106
DTITLE=Albert Jones - Ayelevi
DYEAR=1900
DGENRE=
TTITLE0=Children Play
TTITLE1=Broken Heart
TTITLE2=Maria
TTITLE3=Ayelevi
TTITLE4=Minyemi Yo Feefoo
TTITLE5=Akpenami
EXTD=
EXTT0=
EXTT1=
EXTT2=
EXTT3=
EXTT4=
EXTT5=
PLAYORDER=
